<?xml version="1.0" encoding="utf-8"?>
<!-- Generator: Adobe Illustrator 21.0.0, SVG Export Plug-In . SVG Version: 6.00 Build 0)  -->
<svg version="1.1" xmlns="http://www.w3.org/2000/svg" xmlns:xlink="http://www.w3.org/1999/xlink" x="0px" y="0px"
	 viewBox="0 0 1200 1200" style="enable-background:new 0 0 1200 1200;" xml:space="preserve">
<style type="text/css">
	.st0{display:none;}
	.st1{display:inline;fill:#EEEEEE;}
	.st2{display:inline;}
	.st3{fill:url(#SVGID_1_);}
	.st4{fill:url(#SVGID_2_);}
	.st5{fill:url(#SVGID_3_);}
	.st6{opacity:0.2;}
</style>
<g id="LATAR" class="st0">
	<rect class="st1" width="1200" height="1200"/>
</g>
<g id="back">
</g>
<g id="Layer_1">
	<g>
		<g class="st0">
			<path class="st2" d="M412.6,848.4h-2v-16.4h-5.9v-1.9h13.8v1.9h-5.9V848.4z"/>
			<path class="st2" d="M443.9,848.4h-2.1l-2.1-4.8h-9.6l-2.1,4.8h-2l8-18.4h1.9L443.9,848.4z M434.9,832.5l-4,9.3h8L434.9,832.5z"
				/>
			<path class="st2" d="M466.1,847.9c-1.2,0.5-2.5,0.8-4,0.8c-1.4,0-2.6-0.2-3.7-0.7c-1.1-0.5-2-1.2-2.8-2c-0.8-0.9-1.4-1.9-1.8-3
				c-0.4-1.1-0.6-2.4-0.6-3.7c0-1.3,0.2-2.5,0.6-3.6c0.4-1.1,1-2.2,1.8-3c0.8-0.9,1.7-1.6,2.8-2.1c1.1-0.5,2.3-0.8,3.6-0.8
				c0.7,0,1.4,0.1,2,0.2c0.6,0.1,1.2,0.3,1.7,0.5c0.5,0.2,1,0.5,1.5,0.8c0.5,0.3,0.9,0.6,1.3,1l-1.3,1.6c-0.3-0.3-0.7-0.6-1.1-0.8
				c-0.4-0.3-0.8-0.5-1.2-0.7c-0.4-0.2-0.9-0.3-1.4-0.4c-0.5-0.1-1.1-0.2-1.7-0.2c-1,0-1.9,0.2-2.7,0.6c-0.8,0.4-1.5,0.9-2.1,1.6
				c-0.6,0.7-1,1.5-1.4,2.4c-0.3,0.9-0.5,1.9-0.5,2.9c0,1.1,0.2,2.1,0.5,3c0.3,0.9,0.8,1.7,1.4,2.4c0.6,0.7,1.3,1.2,2.2,1.6
				c0.9,0.4,1.8,0.6,2.9,0.6c1,0,2-0.2,2.8-0.5c0.9-0.4,1.6-0.8,2.2-1.3v-4.6h-5.4v-1.8h7.3v7.3
				C468.4,846.7,467.3,847.4,466.1,847.9z"/>
			<path class="st2" d="M481.2,830.2h2v16.4h9.9v1.9h-11.9V830.2z"/>
			<path class="st2" d="M506.5,830.2v18.3h-2v-18.3H506.5z"/>
			<path class="st2" d="M532.2,830.2h1.9v18.3h-1.6l-11.4-15v15h-1.9v-18.3h1.9l11.1,14.6V830.2z"/>
			<path class="st2" d="M559.4,832h-10.8v6.2h9.6v1.9h-9.6v6.4h10.9v1.9h-12.9v-18.3h12.7V832z"/>
			<path class="st2" d="M598.4,847.9c-1.2,0.5-2.5,0.8-4,0.8c-1.4,0-2.6-0.2-3.7-0.7c-1.1-0.5-2-1.2-2.8-2c-0.8-0.9-1.4-1.9-1.8-3
				c-0.4-1.1-0.6-2.4-0.6-3.7c0-1.3,0.2-2.5,0.6-3.6c0.4-1.1,1-2.2,1.8-3c0.8-0.9,1.7-1.6,2.8-2.1c1.1-0.5,2.3-0.8,3.6-0.8
				c0.7,0,1.4,0.1,2,0.2c0.6,0.1,1.2,0.3,1.7,0.5c0.5,0.2,1,0.5,1.5,0.8s0.9,0.6,1.3,1l-1.3,1.6c-0.3-0.3-0.7-0.6-1.1-0.8
				c-0.4-0.3-0.8-0.5-1.2-0.7c-0.4-0.2-0.9-0.3-1.4-0.4c-0.5-0.1-1.1-0.2-1.7-0.2c-1,0-1.9,0.2-2.7,0.6c-0.8,0.4-1.5,0.9-2.1,1.6
				c-0.6,0.7-1,1.5-1.4,2.4c-0.3,0.9-0.5,1.9-0.5,2.9c0,1.1,0.2,2.1,0.5,3c0.3,0.9,0.8,1.7,1.4,2.4c0.6,0.7,1.3,1.2,2.2,1.6
				c0.9,0.4,1.8,0.6,2.9,0.6c1,0,2-0.2,2.8-0.5c0.9-0.4,1.6-0.8,2.2-1.3v-4.6h-5.4v-1.8h7.3v7.3
				C600.6,846.7,599.6,847.4,598.4,847.9z"/>
			<path class="st2" d="M630,842.9c-0.4,1.1-1,2.1-1.8,3c-0.8,0.9-1.7,1.6-2.8,2.1c-1.1,0.5-2.3,0.8-3.7,0.8c-1.3,0-2.6-0.3-3.7-0.8
				c-1.1-0.5-2-1.2-2.8-2c-0.8-0.9-1.4-1.9-1.8-3c-0.4-1.1-0.6-2.3-0.6-3.6c0-1.3,0.2-2.5,0.7-3.6c0.4-1.1,1-2.1,1.8-3
				c0.8-0.9,1.7-1.6,2.8-2.1c1.1-0.5,2.3-0.8,3.7-0.8c1.3,0,2.6,0.3,3.7,0.8c1.1,0.5,2,1.2,2.8,2c0.8,0.9,1.4,1.9,1.8,3
				c0.4,1.1,0.6,2.3,0.6,3.6C630.7,840.5,630.5,841.7,630,842.9z M628.1,836.4c-0.3-0.9-0.8-1.7-1.4-2.4c-0.6-0.7-1.4-1.2-2.2-1.6
				c-0.8-0.4-1.8-0.6-2.8-0.6c-1,0-1.9,0.2-2.8,0.6c-0.8,0.4-1.6,0.9-2.2,1.6c-0.6,0.7-1.1,1.5-1.4,2.4c-0.3,0.9-0.5,1.9-0.5,2.9
				c0,1,0.2,2,0.5,2.9c0.3,0.9,0.8,1.7,1.4,2.4c0.6,0.7,1.4,1.2,2.2,1.6c0.8,0.4,1.8,0.6,2.8,0.6c1,0,1.9-0.2,2.8-0.6
				s1.6-0.9,2.2-1.6c0.6-0.7,1.1-1.5,1.4-2.4c0.3-0.9,0.5-1.9,0.5-2.9C628.6,838.3,628.4,837.3,628.1,836.4z"/>
			<path class="st2" d="M655.2,832h-10.8v6.2h9.6v1.9h-9.6v6.4h10.9v1.9h-12.9v-18.3h12.7V832z"/>
			<path class="st2" d="M668.6,835.9c0.1,0.3,0.4,0.7,0.7,1c0.4,0.3,0.8,0.5,1.5,0.8c0.6,0.2,1.4,0.5,2.4,0.7c2,0.5,3.4,1.1,4.3,1.9
				c0.9,0.8,1.4,1.9,1.4,3.3c0,0.8-0.1,1.5-0.4,2.1c-0.3,0.6-0.7,1.2-1.2,1.6c-0.5,0.5-1.2,0.8-1.9,1c-0.7,0.2-1.5,0.4-2.4,0.4
				c-1.4,0-2.7-0.2-3.9-0.7c-1.2-0.5-2.3-1.2-3.3-2.2l1.2-1.5c0.9,0.9,1.9,1.5,2.8,1.9c0.9,0.4,2,0.6,3.2,0.6c1.2,0,2.1-0.3,2.9-0.9
				c0.7-0.6,1.1-1.3,1.1-2.3c0-0.4-0.1-0.8-0.2-1.2c-0.1-0.3-0.4-0.6-0.7-0.9c-0.3-0.3-0.8-0.5-1.4-0.8c-0.6-0.2-1.4-0.4-2.3-0.7
				c-1-0.2-1.9-0.5-2.6-0.8c-0.7-0.3-1.4-0.7-1.9-1.1c-0.5-0.4-0.8-0.9-1.1-1.5c-0.2-0.6-0.4-1.2-0.4-2c0-0.7,0.1-1.4,0.4-2
				c0.3-0.6,0.7-1.1,1.2-1.6c0.5-0.4,1.1-0.8,1.8-1c0.7-0.3,1.5-0.4,2.3-0.4c1.3,0,2.4,0.2,3.4,0.6c1,0.4,1.9,0.9,2.8,1.7l-1.2,1.6
				c-0.8-0.7-1.6-1.2-2.5-1.5c-0.8-0.3-1.7-0.5-2.6-0.5c-0.6,0-1.1,0.1-1.5,0.2c-0.5,0.2-0.9,0.4-1.2,0.6c-0.3,0.3-0.6,0.6-0.8,0.9
				c-0.2,0.4-0.3,0.8-0.3,1.2C668.4,835.1,668.5,835.5,668.6,835.9z"/>
			<path class="st2" d="M707.6,840.2v8.2h-2v-18.3h2v8.1h10.2v-8.1h2v18.3h-2v-8.2H707.6z"/>
			<path class="st2" d="M745.1,832h-10.8v6.2h9.6v1.9h-9.6v6.4h10.9v1.9h-12.9v-18.3h12.7V832z"/>
			<path class="st2" d="M768.9,848.4l-5.1-7.1h-5v7.1h-2v-18.3h7.6c1,0,1.9,0.1,2.6,0.4c0.8,0.3,1.4,0.6,2,1.1
				c0.6,0.5,1,1.1,1.3,1.7c0.3,0.7,0.5,1.4,0.5,2.2c0,0.8-0.1,1.4-0.4,2c-0.2,0.6-0.6,1.1-1,1.6c-0.4,0.4-0.9,0.8-1.5,1.1
				c-0.6,0.3-1.2,0.5-1.9,0.6l5.4,7.5H768.9z M767.5,833c-0.8-0.6-1.9-1-3.3-1h-5.5v7.4h5.4c0.7,0,1.3-0.1,1.8-0.3
				c0.6-0.2,1-0.4,1.4-0.7c0.4-0.3,0.7-0.7,0.9-1.2c0.2-0.5,0.3-1,0.3-1.6C768.7,834.6,768.3,833.7,767.5,833z"/>
			<path class="st2" d="M795.2,832h-10.8v6.2h9.6v1.9h-9.6v6.4h10.9v1.9h-12.9v-18.3h12.7V832z"/>
		</g>
		<g class="st0">
			<path class="st2" d="M361.8,763h13.8v39.2h24.2v12.6h-38V763z"/>
			<path class="st2" d="M422.6,789.1v-0.1c0-14.9,11.6-26.9,27-26.9c15.4,0,26.8,11.9,26.8,26.8v0.1c0,14.9-11.6,26.9-27,26.9
				C434,815.8,422.6,803.9,422.6,789.1z M462.3,789.1v-0.1c0-7.5-5.2-14-12.8-14c-7.6,0-12.6,6.4-12.6,13.8v0.1
				c0,7.5,5.2,14,12.8,14C457.2,802.9,462.3,796.5,462.3,789.1z"/>
			<path class="st2" d="M497.8,763h15.5l11.3,32.8L536,763h15.2l-20.3,52.1h-12.8L497.8,763z"/>
			<path class="st2" d="M577.5,763h40.2v12.2h-26.5v7.8h24v11.3h-24v8.2H618v12.2h-40.5V763z"/>
			<path class="st2" d="M646.5,763h13.8v19.4h17.8V763h13.8v51.8h-13.8v-19.7h-17.8v19.7h-13.8V763z"/>
			<path class="st2" d="M722.2,763h40.2v12.2h-26.5v7.8h24v11.3h-24v8.2h26.8v12.2h-40.5V763z"/>
			<path class="st2" d="M804.7,788.5L788.3,763h15.9l8.8,14.6l8.9-14.6h15.6l-16.4,25.3l17.1,26.5h-15.9l-9.6-15.6l-9.6,15.6h-15.6
				L804.7,788.5z"/>
		</g>
		<g>
			<linearGradient id="SVGID_1_" gradientUnits="userSpaceOnUse" x1="429.0858" y1="525.4215" x2="636.0858" y2="690.4215">
				<stop  offset="0" style="stop-color:#4C0B36"/>
				<stop  offset="1" style="stop-color:#C31467"/>
			</linearGradient>
			<path class="st3" d="M770.7,638.4l-45.6,79c-8,13.9-22.8,22.4-38.8,22.4H513.8c-16,0-30.8-8.5-38.8-22.4l-23.1-40
				c-18.6-56.7,22.1-150.6,50.8-194.2c-4.5,8.6-6.8,18-6.8,27.4c0,15,5.7,30,17.2,41.5l80.8,80.8c0.1,0.1,0.2,0.2,0.3,0.3
				C638.8,676,739.3,675.2,770.7,638.4z"/>
			<linearGradient id="SVGID_2_" gradientUnits="userSpaceOnUse" x1="698.0554" y1="723.762" x2="695.0554" y2="449.7621">
				<stop  offset="0" style="stop-color:#4C0B36"/>
				<stop  offset="1" style="stop-color:#C31467"/>
			</linearGradient>
			<path class="st4" d="M811.3,567.9l-40.7,70.4c-31.4,36.8-131.9,37.6-176.5-5.1c3.4,3.1,8.7,3,12-0.3l76.8-76.8l4.1-4.1
				c11.5-11.5,17.2-26.5,17.2-41.5c0-8.1-1.7-16.3-5-23.8c0,0,0,0,0-0.1c-12.2-27.8-63.2-128.8-126.4-135.4h113.5
				c16,0,30.8,8.5,38.8,22.4l86.3,149.4C819.3,537,819.3,554.1,811.3,567.9z"/>
			<linearGradient id="SVGID_3_" gradientUnits="userSpaceOnUse" x1="712.4457" y1="324.2751" x2="447.446" y2="544.2751">
				<stop  offset="0" style="stop-color:#4C0B36"/>
				<stop  offset="1" style="stop-color:#C31467"/>
			</linearGradient>
			<path class="st5" d="M699.2,486.7c-2.6-5.9-6.3-11.4-10.9-16.4c-22.8-24.2-61.3-24-84.8-0.6l-3.4,3.4c0,0-0.1,0-0.1,0l-4-4
				c-22.9-22.9-60.1-22.9-83,0c-4.3,4.2-7.7,9-10.4,14c0,0,0,0,0,0.1c-28.7,43.6-69.4,137.5-50.8,194.2l-63.2-109.4
				c-8-13.9-8-31,0-44.9l86.3-149.4c8-13.9,22.8-22.4,38.8-22.4h59C635.9,357.9,687,458.9,699.2,486.7z"/>
			<path class="st6" d="M699.3,486.7c-1.7-3.7-3.7-7.3-6.2-10.7c-37.2-61.3-104.5-102.3-181.5-102.3c-13.2,0-26.1,1.2-38.6,3.5
				l2-3.5c8-13.9,22.8-22.4,38.8-22.4h59C636,357.9,687.1,458.9,699.3,486.7z"/>
			<path class="st6" d="M543.5,739.8h-29.8c-16,0-30.8-8.6-38.8-22.4l-23.1-40c-18.6-56.7,22.1-150.6,50.8-194.2
				c-1.7,3.3-3.1,6.7-4.2,10.1c-13.6,27.9-21.2,59.3-21.2,92.4C477.2,646.4,502.7,701.1,543.5,739.8z"/>
			<path class="st6" d="M800.5,586.7l-29.8,51.7c-31.2,36.5-130.3,37.6-175.4-4.1c0.2,0.1,0.4,0.1,0.6,0.2c1.1,0.6,2.3,0.9,3.5,1
				c18.1,5,37.3,7.8,57,7.8C712,643.2,762.7,621.8,800.5,586.7z"/>
		</g>
	</g>
</g>
</svg>
