<?xml version="1.0" encoding="utf-8"?>
<!-- Generator: Adobe Illustrator 21.0.0, SVG Export Plug-In . SVG Version: 6.00 Build 0)  -->
<svg version="1.1" id="Layer_1" xmlns="http://www.w3.org/2000/svg" xmlns:xlink="http://www.w3.org/1999/xlink" x="0px" y="0px"
	 viewBox="0 0 2100 2100" style="enable-background:new 0 0 2100 2100;" xml:space="preserve">
<style type="text/css">
	.st0{display:none;fill:#121A23;}
	.st1{fill:url(#XMLID_2_);}
	.st2{display:none;}
	.st3{display:inline;fill:#F2F2F2;}
</style>
<g id="XMLID_3072_">
	<rect x="-708.6" y="128.8" class="st0" width="3642.4" height="2199.2"/>
	<rect id="XMLID_1657_" y="0" class="st0" width="2100" height="2100"/>
	<g id="XMLID_1542_">
		<linearGradient id="XMLID_2_" gradientUnits="userSpaceOnUse" x1="895.3184" y1="965.2111" x2="1204.3005" y2="656.2289">
			<stop  offset="0" style="stop-color:#EF1866"/>
			<stop  offset="4.716372e-02" style="stop-color:#F11E6B"/>
			<stop  offset="0.2745" style="stop-color:#F7397F"/>
			<stop  offset="0.507" style="stop-color:#FB4C8E"/>
			<stop  offset="0.7457" style="stop-color:#FE5796"/>
			<stop  offset="1" style="stop-color:#FF5B99"/>
		</linearGradient>
		<path id="XMLID_1626_" class="st1" d="M1010.8,679.1c-0.1,31.7-25.9,57.3-57.6,57.1c-31.7-0.1-57.3-25.9-57.1-57.6
			c0.1-31.7,25.9-57.3,57.6-57.1C985.3,621.6,1010.9,647.4,1010.8,679.1z M1146.9,622.3c-31.7-0.1-57.5,25.4-57.6,57.1
			c-0.1,31.7,25.4,57.5,57.1,57.6c31.7,0.1,57.5-25.4,57.6-57.1C1204.1,648.2,1178.6,622.5,1146.9,622.3z M1223.1,801.1
			c-40.2-40.2-105.5-40.2-145.7,0l-15.7,15.7l130.1,130.1c8.7,8.7,22.7,8.7,31.3,0c20.1-20.1,30.2-46.5,30.2-72.9
			C1253.3,847.6,1243.2,821.2,1223.1,801.1z M1022.6,801.1c-20.1-20.1-46.5-30.2-72.9-30.2c-26.4,0-52.7,10.1-72.9,30.2
			c-40.2,40.2-40.2,105.5,0,145.7l27.4,27.4l114.6,114.6c17.2,17.2,45.1,17.2,62.3,0l114.6-114.6L1050,828.4L1022.6,801.1z"/>
		<g id="XMLID_1607_" class="st2">
			<path id="XMLID_1624_" class="st3" d="M551.4,1248.3v117.1H519v-117.1h-41.1v-28h114.6v28H551.4z"/>
			<path id="XMLID_1621_" class="st3" d="M734.3,1345.3c-14.7,14.3-32.7,21.5-54.2,21.5c-21.5,0-39.5-7.2-54.2-21.5
				c-14.7-14.3-22-32.1-22-53.5c0-21.3,7.3-39.1,22-53.5c14.7-14.3,32.7-21.5,54.2-21.5c21.4,0,39.5,7.2,54.2,21.5
				c14.7,14.3,22,32.1,22,53.5C756.3,1313.2,748.9,1331,734.3,1345.3z M723.3,1292c0-12.9-4.2-24-12.5-33.1
				c-8.3-9.1-18.5-13.7-30.6-13.7c-12.1,0-22.3,4.6-30.6,13.7c-8.3,9.1-12.5,20.2-12.5,33.1c0,12.9,4.2,23.9,12.5,33
				c8.3,9.1,18.5,13.6,30.6,13.6c12.1,0,22.3-4.5,30.6-13.6C719.1,1315.9,723.3,1304.9,723.3,1292z"/>
			<path id="XMLID_1619_" class="st3" d="M877.9,1291.5h32.6v51.5c-14.4,16.1-34.3,24.1-59.8,24.1c-21.3,0-39.2-7.1-53.7-21.2
				c-14.5-14.1-21.7-31.9-21.7-53.5c0-21.5,7.4-39.5,22.1-53.9c14.7-14.4,32.5-21.6,53.3-21.6c20.8,0,38.9,6.9,54.3,20.6l-16.8,24.3
				c-6.5-5.7-12.5-9.6-18-11.7c-5.5-2.1-11.4-3.2-17.7-3.2c-12.3,0-22.7,4.2-31.1,12.6c-8.4,8.4-12.7,19.4-12.7,33.1
				c0,13.7,4,24.7,12.1,32.9c8.1,8.2,17.7,12.4,29,12.4c11.2,0,20.6-2.1,28-6.4V1291.5z"/>
			<path id="XMLID_1617_" class="st3" d="M1044,1220.3v28.9h-72.2v29.9h65v27.6h-65v30.1h74.5v28.6H939.4v-145.1H1044z"/>
			<path id="XMLID_1615_" class="st3" d="M1136.6,1248.3v117.1h-32.4v-117.1h-41.1v-28h114.6v28H1136.6z"/>
			<path id="XMLID_1613_" class="st3" d="M1291.4,1220.3h32.4v145.1h-32.4v-57.1h-57.7v57.1h-32.4v-145.1h32.4v60.6h57.7V1220.3z"/>
			<path id="XMLID_1611_" class="st3" d="M1464.1,1220.3v28.9h-72.2v29.9h65v27.6h-65v30.1h74.5v28.6h-106.9v-145.1H1464.1z"/>
			<path id="XMLID_1608_" class="st3" d="M1613,1268.4c0,23.2-9.2,38.3-27.6,45l36.7,51.9h-39.9l-32.2-46.3h-22.4v46.3h-32.4v-145.1
				h55c22.6,0,38.6,3.8,48.3,11.4C1608.2,1239.3,1613,1251.6,1613,1268.4z M1573.9,1285.7c4-3.6,6-9.3,6-17.1
				c0-7.8-2.1-13.2-6.2-16.1c-4.2-2.9-11.4-4.4-21.8-4.4h-24.3v43h23.7C1562.4,1291.1,1569.9,1289.3,1573.9,1285.7z"/>
		</g>
		<g id="XMLID_1543_" class="st2">
			<path id="XMLID_1605_" class="st3" d="M631.8,1477.9h-8.9v-20.6l-19.4-31.5h9.6l14.2,23.7l14.2-23.7h9.6l-19.4,31.5V1477.9z"/>
			<path id="XMLID_1600_" class="st3" d="M729.5,1470.7c-5.3,5.1-11.8,7.7-19.5,7.7c-7.8,0-14.3-2.6-19.5-7.7
				c-5.3-5.1-7.9-11.6-7.9-19.2c0-7.7,2.6-14.1,7.9-19.2c5.3-5.1,11.8-7.7,19.5-7.7c7.8,0,14.3,2.6,19.5,7.7
				c5.3,5.1,7.9,11.6,7.9,19.2C737.4,1459.1,734.8,1465.6,729.5,1470.7z M723,1438.1c-3.6-3.7-7.9-5.5-13.1-5.5
				c-5.2,0-9.5,1.8-13.1,5.5c-3.6,3.7-5.3,8.1-5.3,13.4c0,5.2,1.8,9.7,5.3,13.4c3.6,3.7,7.9,5.5,13.1,5.5c5.2,0,9.5-1.8,13.1-5.5
				c3.6-3.7,5.3-8.1,5.3-13.4C728.4,1446.2,726.6,1441.8,723,1438.1z"/>
			<path id="XMLID_1598_" class="st3" d="M790,1466c2.4,2.8,5.6,4.2,9.7,4.2c4.1,0,7.3-1.4,9.7-4.2c2.4-2.8,3.6-6.6,3.6-11.3v-28.8
				h8.8v29.2c0,7.5-2.1,13.3-6.2,17.3c-4.1,4.1-9.4,6.1-15.9,6.1c-6.5,0-11.8-2-15.9-6.1c-4.1-4.1-6.2-9.8-6.2-17.3v-29.2h8.8v28.8
				C786.4,1459.4,787.6,1463.2,790,1466z"/>
			<path id="XMLID_1593_" class="st3" d="M907,1442.7c0,8.6-3.8,14-11.3,16.3l13.6,18.9h-11.2l-12.4-17.5h-11.6v17.5h-8.8v-52.1
				h19.4c8,0,13.6,1.3,17.1,4C905.3,1432.5,907,1436.8,907,1442.7z M895.3,1450.1c1.8-1.5,2.7-4,2.7-7.4c0-3.4-0.9-5.7-2.8-7
				c-1.8-1.3-5.1-1.9-9.8-1.9h-11.2v18.6h11C890.1,1452.4,893.5,1451.6,895.3,1450.1z"/>
			<path id="XMLID_1591_" class="st3" d="M1019.4,1433.8v44.1h-8.8v-44.1h-15.8v-8.1h40.4v8.1H1019.4z"/>
			<path id="XMLID_1588_" class="st3" d="M1077.8,1466l-5.2,11.9h-9.4l23-52.1h9.4l23,52.1h-9.4l-5.2-11.9H1077.8z M1100.4,1457.9
				l-9.5-21.5l-9.5,21.5H1100.4z"/>
			<path id="XMLID_1554_" class="st3" d="M1191.7,1452.5h8.8v17.8c-4.9,5.4-12,8.1-21.1,8.1c-7.7,0-14.2-2.5-19.3-7.6
				c-5.2-5.1-7.8-11.5-7.8-19.2c0-7.8,2.6-14.2,7.9-19.4c5.3-5.2,11.7-7.8,19.2-7.8c7.5,0,13.7,2.2,18.7,6.6l-4.7,6.7
				c-2-1.7-4.1-2.9-6.2-3.6c-2.1-0.7-4.5-1-7.2-1c-5.3,0-9.7,1.7-13.3,5.1c-3.6,3.4-5.4,7.9-5.4,13.4c0,5.5,1.7,10,5.2,13.3
				c3.5,3.4,7.7,5,12.6,5c4.9,0,9.1-1.1,12.4-3.2V1452.5z"/>
			<path id="XMLID_1550_" class="st3" d="M1241.8,1477.9v-52.1h8.8v43.8h23.8v8.3H1241.8z"/>
			<path id="XMLID_1548_" class="st3" d="M1313.9,1425.8h8.8v52.1h-8.8V1425.8z"/>
			<path id="XMLID_1546_" class="st3" d="M1406,1425.8h8.8v52.1h-9.5l-29.5-38v38h-8.8v-52.1h8.8l30.3,38.9V1425.8z"/>
			<path id="XMLID_1544_" class="st3" d="M1495.7,1425.8v8.3h-27.8v13.8h25v7.8h-25v13.9h28.7v8.3h-37.5v-52.1H1495.7z"/>
		</g>
	</g>
</g>
</svg>
