<?xml version="1.0" encoding="utf-8"?>
<!-- Generator: Adobe Illustrator 21.0.0, SVG Export Plug-In . SVG Version: 6.00 Build 0)  -->
<svg version="1.1" id="Layer_1" xmlns="http://www.w3.org/2000/svg" xmlns:xlink="http://www.w3.org/1999/xlink" x="0px" y="0px"
	 viewBox="0 0 1190.6 1683.8" style="enable-background:new 0 0 1190.6 1683.8;" xml:space="preserve">
<style type="text/css">
	.st0{display:none;fill:#131A23;}
	.st1{fill:url(#XMLID_2_);}
	.st2{display:none;}
	.st3{display:inline;fill:#F3F3F3;}
</style>
<g id="XMLID_3072_">
	<rect x="-1152.2" y="-35.2" class="st0" width="3642.4" height="2199.2"/>
	<rect id="XMLID_1657_" x="-443.6" y="-164" class="st0" width="2100" height="2100"/>
	<g id="XMLID_1542_">
		<linearGradient id="XMLID_2_" gradientUnits="userSpaceOnUse" x1="451.7327" y1="801.2186" x2="760.7148" y2="492.2364">
			<stop  offset="0" style="stop-color:#ED1E67"/>
			<stop  offset="0.1222" style="stop-color:#EE3272"/>
			<stop  offset="0.3316" style="stop-color:#EF4682"/>
			<stop  offset="0.5458" style="stop-color:#EF538E"/>
			<stop  offset="0.7657" style="stop-color:#EF5A95"/>
			<stop  offset="1" style="stop-color:#F05C98"/>
		</linearGradient>
		<path id="XMLID_1626_" class="st1" d="M567.2,515.1c-0.1,31.7-25.9,57.3-57.6,57.1c-31.7-0.1-57.3-25.9-57.1-57.6
			c0.1-31.7,25.9-57.3,57.6-57.1C541.8,457.7,567.3,483.4,567.2,515.1z M703.3,458.3c-31.7-0.1-57.5,25.4-57.6,57.1
			c-0.1,31.7,25.4,57.5,57.1,57.6c31.7,0.1,57.5-25.4,57.6-57.1C760.5,484.3,735,458.5,703.3,458.3z M779.5,637.1
			c-40.2-40.2-105.5-40.2-145.7,0l-15.7,15.7l130.1,130.1c8.7,8.7,22.7,8.7,31.3,0c20.1-20.1,30.2-46.5,30.2-72.9
			C809.7,683.6,799.6,657.2,779.5,637.1z M579,637.1c-20.1-20.1-46.5-30.2-72.9-30.2c-26.4,0-52.7,10.1-72.9,30.2
			c-40.2,40.2-40.2,105.5,0,145.7l27.4,27.4l114.6,114.6c17.2,17.2,45.1,17.2,62.3,0l114.6-114.6L606.4,664.4L579,637.1z"/>
		<g id="XMLID_1607_" class="st2">
			<path id="XMLID_1624_" class="st3" d="M107.8,1084.3v117.1H75.4v-117.1H34.3v-28h114.6v28H107.8z"/>
			<path id="XMLID_1621_" class="st3" d="M290.7,1181.4c-14.7,14.3-32.7,21.5-54.2,21.5c-21.5,0-39.5-7.2-54.2-21.5
				c-14.7-14.3-22-32.1-22-53.5c0-21.3,7.3-39.1,22-53.5c14.7-14.3,32.7-21.5,54.2-21.5c21.4,0,39.5,7.2,54.2,21.5
				c14.7,14.3,22,32.1,22,53.5C312.7,1149.2,305.4,1167,290.7,1181.4z M279.7,1128c0-12.9-4.2-24-12.5-33.1
				c-8.3-9.1-18.5-13.7-30.6-13.7c-12.1,0-22.3,4.6-30.6,13.7c-8.3,9.1-12.5,20.2-12.5,33.1c0,12.9,4.2,23.9,12.5,33
				c8.3,9.1,18.5,13.6,30.6,13.6c12.1,0,22.3-4.5,30.6-13.6C275.5,1151.9,279.7,1140.9,279.7,1128z"/>
			<path id="XMLID_1619_" class="st3" d="M434.3,1127.5h32.6v51.5c-14.4,16.1-34.3,24.1-59.8,24.1c-21.3,0-39.2-7.1-53.7-21.2
				c-14.5-14.1-21.7-31.9-21.7-53.5c0-21.5,7.4-39.5,22.1-53.9c14.7-14.4,32.5-21.6,53.3-21.6c20.8,0,38.9,6.9,54.3,20.6l-16.8,24.3
				c-6.5-5.7-12.5-9.6-18-11.7c-5.5-2.1-11.4-3.2-17.7-3.2c-12.3,0-22.7,4.2-31.1,12.6c-8.4,8.4-12.7,19.4-12.7,33.1
				c0,13.7,4,24.7,12.1,32.9c8.1,8.2,17.7,12.4,29,12.4c11.2,0,20.6-2.1,28-6.4V1127.5z"/>
			<path id="XMLID_1617_" class="st3" d="M600.4,1056.3v28.9h-72.2v29.9h65v27.6h-65v30.1h74.5v28.6H495.8v-145.1H600.4z"/>
			<path id="XMLID_1615_" class="st3" d="M693,1084.3v117.1h-32.4v-117.1h-41.1v-28h114.6v28H693z"/>
			<path id="XMLID_1613_" class="st3" d="M847.8,1056.3h32.4v145.1h-32.4v-57.1h-57.7v57.1h-32.4v-145.1h32.4v60.6h57.7V1056.3z"/>
			<path id="XMLID_1611_" class="st3" d="M1020.5,1056.3v28.9h-72.2v29.9h65v27.6h-65v30.1h74.5v28.6H915.9v-145.1H1020.5z"/>
			<path id="XMLID_1608_" class="st3" d="M1169.4,1104.4c0,23.2-9.2,38.3-27.6,45l36.7,51.9h-39.9l-32.2-46.3h-22.4v46.3h-32.4
				v-145.1h55c22.6,0,38.6,3.8,48.3,11.4C1164.6,1075.3,1169.4,1087.6,1169.4,1104.4z M1130.4,1121.7c4-3.6,6-9.3,6-17.1
				c0-7.8-2.1-13.2-6.2-16.1c-4.2-2.9-11.4-4.4-21.8-4.4h-24.3v43h23.7C1118.8,1127.1,1126.3,1125.3,1130.4,1121.7z"/>
		</g>
		<g id="XMLID_1543_" class="st2">
			<path id="XMLID_1605_" class="st3" d="M188.2,1313.9h-8.9v-20.6l-19.4-31.5h9.6l14.2,23.7l14.2-23.7h9.6l-19.4,31.5V1313.9z"/>
			<path id="XMLID_1600_" class="st3" d="M285.9,1306.7c-5.3,5.1-11.8,7.7-19.5,7.7s-14.3-2.6-19.5-7.7c-5.3-5.1-7.9-11.6-7.9-19.2
				s2.6-14.1,7.9-19.2c5.3-5.1,11.8-7.7,19.5-7.7s14.3,2.6,19.5,7.7c5.3,5.1,7.9,11.6,7.9,19.2S291.2,1301.6,285.9,1306.7z
				 M279.5,1274.1c-3.6-3.7-7.9-5.5-13.1-5.5c-5.2,0-9.5,1.8-13.1,5.5c-3.6,3.7-5.3,8.1-5.3,13.4c0,5.2,1.8,9.7,5.3,13.4
				c3.6,3.7,7.9,5.5,13.1,5.5c5.2,0,9.5-1.8,13.1-5.5c3.6-3.7,5.3-8.1,5.3-13.4C284.8,1282.2,283,1277.8,279.5,1274.1z"/>
			<path id="XMLID_1598_" class="st3" d="M346.4,1302c2.4,2.8,5.6,4.2,9.7,4.2c4.1,0,7.3-1.4,9.7-4.2c2.4-2.8,3.6-6.6,3.6-11.3
				v-28.8h8.8v29.2c0,7.5-2.1,13.3-6.2,17.3c-4.1,4.1-9.4,6.1-15.9,6.1c-6.5,0-11.8-2-15.9-6.1c-4.1-4-6.2-9.8-6.2-17.3v-29.2h8.8
				v28.8C342.9,1295.4,344,1299.2,346.4,1302z"/>
			<path id="XMLID_1593_" class="st3" d="M463.4,1278.7c0,8.6-3.8,14-11.3,16.3l13.6,18.9h-11.2l-12.4-17.5h-11.6v17.5h-8.8v-52.1
				h19.4c8,0,13.6,1.3,17.1,4C461.7,1268.5,463.4,1272.8,463.4,1278.7z M451.7,1286.1c1.8-1.5,2.7-4,2.7-7.4c0-3.4-0.9-5.7-2.8-7
				c-1.8-1.3-5.1-1.9-9.8-1.9h-11.2v18.6h11C446.5,1288.4,449.9,1287.6,451.7,1286.1z"/>
			<path id="XMLID_1591_" class="st3" d="M575.8,1269.8v44.1H567v-44.1h-15.8v-8.1h40.4v8.1H575.8z"/>
			<path id="XMLID_1588_" class="st3" d="M634.3,1302l-5.2,11.9h-9.4l23-52.1h9.4l23,52.1h-9.4l-5.2-11.9H634.3z M656.8,1293.9
				l-9.5-21.5l-9.5,21.5H656.8z"/>
			<path id="XMLID_1554_" class="st3" d="M748.1,1288.6h8.8v17.8c-4.9,5.4-12,8.1-21.1,8.1c-7.7,0-14.2-2.5-19.3-7.6
				c-5.2-5.1-7.8-11.5-7.8-19.2s2.6-14.2,7.9-19.4c5.3-5.2,11.7-7.8,19.2-7.8c7.5,0,13.7,2.2,18.7,6.6l-4.7,6.7
				c-2-1.7-4.1-2.9-6.2-3.6c-2.1-0.7-4.5-1-7.2-1c-5.3,0-9.7,1.7-13.3,5.1c-3.6,3.4-5.4,7.9-5.4,13.4c0,5.5,1.7,10,5.2,13.3
				c3.5,3.4,7.7,5,12.6,5c4.9,0,9.1-1.1,12.4-3.2V1288.6z"/>
			<path id="XMLID_1550_" class="st3" d="M798.3,1313.9v-52.1h8.8v43.8h23.8v8.3H798.3z"/>
			<path id="XMLID_1548_" class="st3" d="M870.3,1261.8h8.8v52.1h-8.8V1261.8z"/>
			<path id="XMLID_1546_" class="st3" d="M962.4,1261.8h8.8v52.1h-9.5l-29.5-38v38h-8.8v-52.1h8.8l30.3,38.9V1261.8z"/>
			<path id="XMLID_1544_" class="st3" d="M1052.1,1261.8v8.3h-27.8v13.8h25v7.8h-25v13.9h28.7v8.3h-37.5v-52.1H1052.1z"/>
		</g>
	</g>
</g>
<g>
</g>
<g>
</g>
<g>
</g>
<g>
</g>
<g>
</g>
<g>
</g>
</svg>
