<?xml version="1.0" encoding="utf-8"?>
<!-- Generator: Adobe Illustrator 21.0.0, SVG Export Plug-In . SVG Version: 6.00 Build 0)  -->
<svg version="1.1" id="Layer_1" xmlns="http://www.w3.org/2000/svg" xmlns:xlink="http://www.w3.org/1999/xlink" x="0px" y="0px"
	 viewBox="0 0 1190.6 1190.6" style="enable-background:new 0 0 1190.6 1190.6;" xml:space="preserve">
<style type="text/css">
	.st0{display:none;fill:#131A23;}
	.st1{fill:url(#XMLID_4_);}
	.st2{display:none;}
	.st3{display:inline;fill:#F3F3F3;}
</style>
<g id="XMLID_3072_">
	<rect x="-1332.7" y="-211.2" class="st0" width="3642.4" height="2199.2"/>
	<rect id="XMLID_1657_" x="-624.1" y="-340" class="st0" width="2100" height="2100"/>
	<g id="XMLID_1_">
		<rect x="-3614.7" y="-1165.4" class="st0" width="8741.7" height="5278.1"/>
		<rect id="XMLID_2_" x="-1914.1" y="-1474.6" class="st0" width="5040" height="5040"/>
		<g id="XMLID_1542_">
			<linearGradient id="XMLID_4_" gradientUnits="userSpaceOnUse" x1="234.6976" y1="841.9492" x2="976.2578" y2="100.389">
				<stop  offset="0" style="stop-color:#ED1E67"/>
				<stop  offset="0.1222" style="stop-color:#EE3272"/>
				<stop  offset="0.3316" style="stop-color:#EF4682"/>
				<stop  offset="0.5458" style="stop-color:#EF538E"/>
				<stop  offset="0.7657" style="stop-color:#EF5A95"/>
				<stop  offset="1" style="stop-color:#F05C98"/>
			</linearGradient>
			<path id="XMLID_1626_" class="st1" d="M511.8,155.3c-0.3,76-62.2,137.4-138.3,137.1c-76-0.3-137.4-62.2-137.1-138.3
				c0.3-76,62.2-137.4,138.3-137.1C450.8,17.4,512.1,79.3,511.8,155.3z M838.4,19c-76-0.3-137.9,61.1-138.3,137.1
				c-0.3,76,61.1,137.9,137.1,138.3c76,0.3,137.9-61.1,138.3-137.1C975.9,81.2,914.5,19.3,838.4,19z M1021.4,448
				c-96.6-96.6-253.2-96.6-349.7,0L634,485.6l312.2,312.2c20.8,20.8,54.4,20.8,75.2,0c48.3-48.3,72.4-111.6,72.4-174.9
				S1069.6,496.3,1021.4,448z M540.2,448c-48.3-48.3-111.6-72.4-174.9-72.4c-63.3,0-126.6,24.1-174.9,72.4
				c-96.6,96.6-96.6,253.2,0,349.7l65.7,65.7l274.9,274.9c41.3,41.3,108.3,41.3,149.6,0l274.9-274.9L605.9,513.7L540.2,448z"/>
			<g id="XMLID_1607_" class="st2">
				<path id="XMLID_1624_" class="st3" d="M-590.7,1521.4v281h-77.7v-281h-98.6v-67.3h275v67.3H-590.7z"/>
				<path id="XMLID_1621_" class="st3" d="M-151.8,1754.3c-35.2,34.4-78.6,51.6-130,51.6c-51.5,0-94.8-17.2-130-51.6
					c-35.2-34.4-52.8-77.1-52.8-128.3c0-51.1,17.6-93.9,52.8-128.3c35.2-34.4,78.5-51.6,130-51.6c51.5,0,94.8,17.2,130,51.6
					c35.2,34.4,52.8,77.1,52.8,128.3C-99,1677.1-116.6,1719.9-151.8,1754.3z M-178.2,1626.2c0-31.1-10-57.5-29.9-79.5
					c-19.9-21.9-44.4-32.9-73.5-32.9c-29.1,0-53.6,11-73.5,32.9c-19.9,21.9-29.9,48.4-29.9,79.5c0,31.1,10,57.5,29.9,79.2
					c19.9,21.8,44.4,32.6,73.5,32.6c29.1,0,53.6-10.9,73.5-32.6C-188.2,1683.7-178.2,1657.3-178.2,1626.2z"/>
				<path id="XMLID_1619_" class="st3" d="M192.9,1625h78.2v123.6c-34.5,38.5-82.4,57.8-143.5,57.8c-51.1,0-94.1-16.9-128.8-50.8
					c-34.7-33.9-52.1-76.6-52.1-128.3c0-51.6,17.7-94.7,53.1-129.3c35.4-34.5,78-51.8,128-51.8c50,0,93.4,16.4,130.3,49.3
					l-40.4,58.3c-15.6-13.6-30-23-43.1-28.1c-13.1-5.1-27.3-7.7-42.6-7.7c-29.6,0-54.5,10-74.7,30.1c-20.3,20.1-30.4,46.6-30.4,79.5
					c0,32.9,9.7,59.2,29.1,79c19.4,19.8,42.6,29.6,69.5,29.6s49.3-5.1,67.3-15.4V1625z"/>
				<path id="XMLID_1617_" class="st3" d="M591.5,1454.1v69.2H418.1v71.7h155.9v66.3H418.1v72.2H597v68.8H340.4v-348.2H591.5z"/>
				<path id="XMLID_1615_" class="st3" d="M813.7,1521.4v281H736v-281h-98.6v-67.3h275v67.3H813.7z"/>
				<path id="XMLID_1613_" class="st3" d="M1185.3,1454.1h77.7v348.2h-77.7v-137h-138.5v137h-77.7v-348.2h77.7v145.5h138.5V1454.1z"
					/>
				<path id="XMLID_1611_" class="st3" d="M1599.8,1454.1v69.2h-173.4v71.7h155.9v66.3h-155.9v72.2h178.9v68.8h-256.6v-348.2H1599.8
					z"/>
				<path id="XMLID_1608_" class="st3" d="M1957,1569.7c0,55.8-22.1,91.8-66.3,108.1l88.2,124.6h-95.7l-77.2-111.1h-53.8v111.1
					h-77.7v-348.2h132c54.1,0,92.7,9.1,115.8,27.4C1945.5,1499.8,1957,1529.2,1957,1569.7z M1863.4,1611
					c9.6-8.6,14.4-22.3,14.4-41.1c0-18.8-5-31.6-14.9-38.6c-10-7-27.4-10.5-52.3-10.5h-58.3V1624h56.8
					C1835.6,1624,1853.7,1619.7,1863.4,1611z"/>
			</g>
			<g id="XMLID_1543_" class="st2">
				<path id="XMLID_1605_" class="st3" d="M-397.9,2072.4h-21.5V2023l-46.5-75.7h23.1l34.2,56.9l34.2-56.9h23.1l-46.5,75.7V2072.4z"
					/>
				<path id="XMLID_1600_" class="st3" d="M-163.3,2055.1c-12.6,12.3-28.3,18.5-46.9,18.5s-34.2-6.2-46.9-18.5
					c-12.6-12.3-19-27.7-19-46.2c0-18.4,6.3-33.8,19-46.2c12.6-12.3,28.3-18.5,46.9-18.5s34.2,6.2,46.9,18.5
					c12.6,12.3,19,27.7,19,46.2C-144.3,2027.4-150.7,2042.8-163.3,2055.1z M-178.8,1976.9c-8.5-8.8-19-13.2-31.4-13.2
					c-12.4,0-22.9,4.4-31.4,13.2c-8.5,8.8-12.8,19.5-12.8,32.1c0,12.6,4.3,23.3,12.8,32.1c8.5,8.8,19,13.2,31.4,13.2
					c12.4,0,22.9-4.4,31.4-13.2c8.5-8.8,12.8-19.5,12.8-32.1C-166,1996.4-170.3,1985.7-178.8,1976.9z"/>
				<path id="XMLID_1598_" class="st3" d="M-18,2043.8c5.7,6.7,13.5,10,23.3,10c9.8,0,17.5-3.3,23.3-10c5.7-6.7,8.6-15.7,8.6-27.2
					v-69.2h21.1v70.1c0,18-5,31.9-14.9,41.6c-9.9,9.7-22.6,14.6-38.1,14.6c-15.5,0-28.2-4.9-38.1-14.6c-9.9-9.7-14.8-23.6-14.8-41.6
					v-70.1h21.1v69.2C-26.6,2028-23.7,2037.1-18,2043.8z"/>
				<path id="XMLID_1593_" class="st3" d="M262.7,1987.9c0,20.6-9,33.6-27,39l32.7,45.4h-26.8l-29.9-42H184v42h-21.1v-125.1h46.5
					c19.1,0,32.7,3.2,41,9.7C258.6,1963.4,262.7,1973.8,262.7,1987.9z M234.6,2005.7c4.3-3.7,6.4-9.6,6.4-17.8
					c0-8.2-2.2-13.8-6.6-16.8c-4.4-3-12.3-4.6-23.6-4.6H184v44.7h26.3C222.2,2011.2,230.3,2009.4,234.6,2005.7z"/>
				<path id="XMLID_1591_" class="st3" d="M532.5,1966.7v105.7h-21.1v-105.7h-37.9v-19.3h97v19.3H532.5z"/>
				<path id="XMLID_1588_" class="st3" d="M672.8,2043.9l-12.5,28.4h-22.5l55.1-125.1h22.5l55.1,125.1h-22.5l-12.5-28.4H672.8z
					 M726.8,2024.4l-22.7-51.5l-22.7,51.5H726.8z"/>
				<path id="XMLID_1554_" class="st3" d="M946,2011.6h21.1v42.8c-11.8,13-28.7,19.5-50.6,19.5c-18.5,0-34-6.1-46.4-18.2
					c-12.5-12.2-18.7-27.6-18.7-46.2c0-18.6,6.4-34.1,19.1-46.5c12.7-12.4,28.1-18.6,46.1-18.6c18,0,33,5.2,44.9,15.7l-11.3,16.1
					c-4.9-4.2-9.8-7.1-14.8-8.7c-5-1.6-10.7-2.4-17.3-2.4c-12.6,0-23.3,4.1-31.8,12.3c-8.6,8.2-12.9,18.9-12.9,32.2
					c0,13.3,4.2,24,12.5,32c8.3,8.1,18.5,12.1,30.3,12.1c11.9,0,21.8-2.6,29.8-7.7V2011.6z"/>
				<path id="XMLID_1550_" class="st3" d="M1066.4,2072.4v-125.1h21.1v105h57.1v20H1066.4z"/>
				<path id="XMLID_1548_" class="st3" d="M1239.2,1947.3h21.1v125.1h-21.1V1947.3z"/>
				<path id="XMLID_1546_" class="st3" d="M1460.3,1947.3h21.1v125.1h-22.9l-70.9-91.2v91.2h-21.1v-125.1h21.1l72.6,93.4V1947.3z"/>
				<path id="XMLID_1544_" class="st3" d="M1675.6,1947.3v19.9h-66.7v33.1h59.9v18.8h-59.9v33.5h68.9v19.9h-90v-125.1H1675.6z"/>
			</g>
		</g>
	</g>
</g>
</svg>
